<?xml version="1.0" encoding="UTF-8"?>
<svg id="Capa_1" data-name="Capa 1" xmlns="http://www.w3.org/2000/svg" viewBox="0 0 181.98 99.18">
  <defs>
    <style>
      .cls-1 {
        isolation: isolate;
      }

      .cls-2 {
        fill: #fff;
      }
    </style>
  </defs>
  <g class="cls-1">
    <g class="cls-1">
      <path class="cls-2" d="M31.41,55.26c-.9-.72-3.24-1.62-4.86-1.62-3.15,0-5.31,2.07-5.31,5.58v17.28H2.97v-40.77h17.91v9.99h.09c1.17-6.93,6.03-10.8,11.34-10.8,1.26,0,2.7.09,3.69.36l-4.59,19.98Z"/>
      <path class="cls-2" d="M64.53,76.5v-5.76h-.09c-1.53,5.04-6.3,7.2-12.33,7.2-9,0-13.14-4.41-13.14-12.51v-29.7h18.27v23.85c0,1.71,1.44,2.61,2.7,2.61s3.06-.81,3.06-3.06v-23.4h18.27v40.77h-16.74Z"/>
    </g>
    <g class="cls-1">
      <path class="cls-2" d="M102.6,77.67c-6.3,0-10.35-1.17-14.04-2.79l-1.44-14.04c4.05,2.61,8.82,4.14,13.05,4.14,1.44,0,2.16-.54,2.16-1.26,0-.9-.81-1.08-2.16-1.35-7.83-1.71-12.6-5.94-12.6-13.5,0-8.91,7.11-14.31,16.65-14.31,5.31,0,10.8,1.08,13.23,2.25l-2.7,11.97c-2.16-.9-5.76-1.98-8.1-1.98-1.35,0-2.16.36-2.16,1.26,0,.81.63.99,2.07,1.26,10.08,1.89,13.14,7.38,13.14,14.13,0,7.29-5.22,14.22-17.1,14.22Z"/>
    </g>
    <g class="cls-1">
      <path class="cls-2" d="M154.98,52.11c-1.62-1.08-4.14-2.07-6.66-2.07-4.23,0-6.66,3.06-6.66,6.3s2.16,6.39,7.11,6.39c2.97,0,5.04-.72,7.11-1.8l-1.62,14.85c-2.34,1.17-5.76,1.89-9.45,1.89-11.79,0-22.23-8.37-22.23-21.51s10.71-21.6,21.87-21.6c5.49,0,10.08.99,13.86,3.15l-3.33,14.4Z"/>
      <path class="cls-2" d="M171,78.12c-3.06,0-9.45-6.39-9.45-9.45s6.39-9.36,9.45-9.36,9.45,6.39,9.45,9.36-6.39,9.45-9.45,9.45Z"/>
    </g>
  </g>
</svg>
